<?xml version="1.0" encoding="UTF-8"?>
<svg xmlns="http://www.w3.org/2000/svg" xmlns:xlink="http://www.w3.org/1999/xlink" width="24pt" height="24pt" viewBox="0 0 24 24" version="1.1">
<g id="surface1">
<path style=" stroke:none;fill-rule:nonzero;fill:rgb(100%,34.117647%,32.156863%);fill-opacity:1;" d="M 11.417969 23.742188 C 11.085938 23.371094 3.308594 14.640625 3.308594 8.691406 C 3.308594 3.898438 7.207031 0 12 0 C 16.792969 0 20.691406 3.898438 20.691406 8.691406 C 20.691406 14.640625 12.914062 23.371094 12.582031 23.742188 C 12.269531 24.085938 11.726562 24.085938 11.417969 23.742188 Z M 11.417969 23.742188 "/>
<path style=" stroke:none;fill-rule:nonzero;fill:rgb(85.882353%,22.745098%,23.529412%);fill-opacity:1;" d="M 20.691406 8.691406 C 20.691406 3.898438 16.792969 0 12 0 L 12 24 C 12.214844 24 12.425781 23.914062 12.582031 23.742188 C 12.914062 23.371094 20.691406 14.640625 20.691406 8.691406 Z M 20.691406 8.691406 "/>
<path style=" stroke:none;fill-rule:nonzero;fill:rgb(93.72549%,93.72549%,93.72549%);fill-opacity:1;" d="M 12 13.066406 C 9.589844 13.066406 7.628906 11.101562 7.628906 8.691406 C 7.628906 6.28125 9.589844 4.320312 12 4.320312 C 14.410156 4.320312 16.375 6.28125 16.375 8.691406 C 16.375 11.101562 14.410156 13.066406 12 13.066406 Z M 12 13.066406 "/>
<path style=" stroke:none;fill-rule:nonzero;fill:rgb(77.254902%,84.705882%,87.45098%);fill-opacity:1;" d="M 12 4.320312 L 12 13.066406 C 14.410156 13.066406 16.375 11.101562 16.375 8.691406 C 16.375 6.28125 14.410156 4.320312 12 4.320312 Z M 12 4.320312 "/>
</g>
</svg>
